<?xml version="1.0" standalone="no"?><!DOCTYPE svg PUBLIC "-//W3C//DTD SVG 1.1//EN" "http://www.w3.org/Graphics/SVG/1.1/DTD/svg11.dtd"><svg t="1546925692951" class="icon" style="" viewBox="0 0 1024 1024" version="1.1" xmlns="http://www.w3.org/2000/svg" p-id="3694" xmlns:xlink="http://www.w3.org/1999/xlink" width="200" height="200"><defs><style type="text/css"></style></defs><path d="M1018.582011 373.239271c-12.039976-45.751911-76.453851-71.035861-189.62963-67.423868-23.477954 0.601999-45.149912 13.845973-57.791887 34.313933 0 0 0 0.601999-0.601999 0.601999-12.641975 20.46796-12.641975 45.149912-3.009994 67.423868 13.845973 30.70194 22.273956 64.413874 24.079953 100.533804-66.821869 32.507937-146.887713 57.791887-253.441505 90.299824-106.553792 25.885949-193.241623 45.149912-260.063492 51.771899-26.487948-45.149912-46.955908-90.299824-46.955908-142.071723 0-148.091711 127.021752-264.277484 280.531452-264.277484 75.851852 0 143.877719 28.293945 193.241623 75.249853 14.447972 13.243974 36.721928 11.437978 48.159906-4.213992 0.601999-0.601999 1.203998-1.203998 1.805996-2.407995 9.631981-12.641975 9.029982-30.70194-2.407995-42.139918C692.298648 210.09759 606.814815 173.375661 511.699001 173.375661c-179.997648 0-326.885362 135.449735-340.129336 302.805409C44.547913 541.196943-9.029982 598.98883 4.213992 650.760729c13.243974 45.149912 73.443857 71.035861 173.375661 71.035861l19.865961 0 40.333921 0c66.821869 77.05585 160.131687 128.827748 273.909465 128.827748 179.997648 0 320.263374-128.827748 340.129336-296.183422C958.382128 496.047031 1038.447972 437.653145 1018.582011 373.239271zM71.035861 630.894768c0-6.621987 19.865961-38.527925 99.931805-83.677837 6.621987 32.507937 13.243974 71.035861 26.487948 102.941799C117.389771 656.780717 77.657848 644.138742 71.035861 630.894768zM511.699001 779.588477c-73.443857 0-140.265726-25.885949-186.619636-71.035861 73.443857-12.641975 153.5097-25.885949 233.575544-45.149912 66.821869-19.263962 146.887713-45.149912 220.33157-77.05585C744.672546 695.308642 638.118754 779.588477 511.699001 779.588477zM851.828336 476.783069c-6.621987-32.507937-13.243974-71.035861-26.487948-96.921811 86.687831 0 120.399765 12.641975 127.021752 19.263962C951.760141 405.747208 925.272193 437.653145 851.828336 476.783069z" p-id="3695"></path><path d="M371.433275 437.653145c13.243974-38.527925 53.577895-64.413874 99.931805-77.05585 19.865961-6.621987 26.487948-25.885949 26.487948-45.149912-6.621987-12.641975-26.487948-25.885949-46.955908-19.263962-60.199882 19.263962-120.399765 57.791887-146.887713 122.205761-6.621987 12.641975 0 32.507937 19.865961 38.527925l13.243974 0C350.965315 456.917108 364.811287 450.897119 371.433275 437.653145z" p-id="3696"></path><path d="M317.855379 482.803057c-19.865961 0-33.109935 12.641975-33.109935 32.507937s0 45.149912 6.621987 64.413874c6.621987 12.641975 19.865961 25.885949 33.109935 25.885949l13.243974 0c19.865961-6.621987 26.487948-25.885949 19.865961-38.527925-6.621987-19.263962-6.621987-38.527925-6.621987-51.771899C350.965315 496.047031 337.72134 482.803057 317.855379 482.803057z" p-id="3697"></path></svg>