<?xml version="1.0" standalone="no"?><!DOCTYPE svg PUBLIC "-//W3C//DTD SVG 1.1//EN" "http://www.w3.org/Graphics/SVG/1.1/DTD/svg11.dtd"><svg t="1546925740264" class="icon" style="" viewBox="0 0 1024 1024" version="1.1" xmlns="http://www.w3.org/2000/svg" p-id="7499" xmlns:xlink="http://www.w3.org/1999/xlink" width="200" height="200"><defs><style type="text/css"></style></defs><path d="M663.057391 145.513118c-40.415478-42.295292-94.250594-65.587787-151.58951-65.587787-57.337893 0-111.173009 23.292496-151.588487 65.587787-40.074717 41.939181-62.145385 97.608062-62.145385 156.753113s22.070668 114.812909 62.145385 156.753113c11.187807 11.707646 23.407106 21.951965 36.440957 30.656207-44.13315 15.051811-94.220918 40.628326-138.068566 84.116793-72.692602 72.099085-109.673865 174.576037-109.914342 304.58402-0.028653 15.844873 12.792351 28.712949 28.637224 28.743648 0.019443 0 0.036839 0 0.054235 0 15.820314 0 28.659737-12.81077 28.689413-28.637224 0.272199-147.063427 51.357691-250.90547 151.835104-308.641429 76.1831-43.776016 154.298202-44.281529 155.494447-44.282552 0.041956 0 0.082888 0 0.124843 0 2.843768 0 5.590322-0.419556 8.18645-1.192152 53.616128-2.520403 103.616916-25.494651 141.700279-65.348334 40.074717-41.939181 62.144362-97.607038 62.144362-156.753113C725.201753 243.122203 703.131085 187.453323 663.057391 145.513118zM511.467881 467.226261c-86.212524 0-156.353001-74.000388-156.353001-164.960029s70.140477-164.960029 156.353001-164.960029S667.820881 211.307613 667.820881 302.266231 597.681428 467.226261 511.467881 467.226261zM746.753605 546.975583c-13.661138-8.029884-31.243585-3.463891-39.272445 10.196223s-3.463891 31.242562 10.1952 39.272445c0.225127 0.132006 23.532973 14.96483 47.399543 54.240345 24.2718 39.944757 53.206806 112.49205 53.206806 231.272317 0 15.844873 12.845563 28.690436 28.690436 28.690436s28.690436-12.845563 28.690436-28.690436C875.662557 625.691365 752.017492 550.069037 746.753605 546.975583z" p-id="7500"></path></svg>